# xmcd
#
# Track frame offsets: 
#        150
#        11769
#        25358
#        41879
#        62558
#        78652
#        92965
#        112759
#        132200
#        147480
#
# Disc length: 2187 seconds
#
# Revision: 1
# Processed by: cddbd v1.5.2PL0 Copyright (c) Steve Scherf et al.
# Submitted via: ExactAudioCopyFreeDBPlugin 1.0
#
DISCID=8808890a
DTITLE=India Arie and Joe Sample - Christmas With Friends
DYEAR=2015
DGENRE=Christmas
TTITLE0=Let It Snow
TTITLE1=Favorite Time Of Year (Feat Tori Kelly)
TTITLE2=Silent Night (Feat Brandy)
TTITLE3=Have Yourself A Merry Little Christmas (Feat KEM)
TTITLE4=Merry Christmas Baby (Feat Michael McDonald)
TTITLE5=I’Ve Got My Love To Keep Me Warm (Feat Dave Koz and Trombone Sho
TTITLE5=rty)
TTITLE6=The Christmas Song
TTITLE7=God Rest Ye Merry Gentlemen (Feat Khristian Dentley Of Take 6)
TTITLE8=Mary, Did You Know? (Feat Gene Moore)
TTITLE9=Auld Lang Syne (Feat Kirk Whalum)
EXTD=
EXTT0=
EXTT1=
EXTT2=
EXTT3=
EXTT4=
EXTT5=
EXTT6=
EXTT7=
EXTT8=
EXTT9=
PLAYORDER=
